#!OML:ASF H:\Terrain\Patient Classification 1\Walking\liu\liu.ASF
:FULLY-SPECIFIED
:DEGREES
17
root 8.365016 17.488899 -38.075947 7.802311 -4.589706 -5.752483
lowerback -6.812377 1.260578 1.766039
upperback -1.449547 1.482580 3.369080
thorax 2.284238 0.743064 2.596715
lowerneck -21.531839 -5.473314 -13.435289
upperneck 17.180679 -7.098091 16.730669
head 9.963074 -2.457994 7.080106
rclavicle 0.000000 0.000000
rhumerus -45.428902 21.335159 -96.842133
rradius 68.923691
rwrist -38.269218
rhand -33.652409 -35.687191
rfingers 7.837522
rthumb -4.279264 -68.625809
lclavicle 0.000000 0.000000
lhumerus -43.608841 -8.453214 98.938293
lradius 31.551300
lwrist 7.427563
lhand -8.044113 -25.876070
lfingers 7.837522
lthumb 20.426891 6.170879
rfemur 5.554527 7.059536 34.246738
rtibia 12.807410
rfoot -21.543060 -1.504767
rtoes -6.437057
lfemur -44.134418 -0.336155 -8.796997
ltibia 20.939711
lfoot -15.757831 16.544769
ltoes -14.236530
18
root 8.387709 17.481750 -37.920410 7.957697 -4.837415 -6.175026
lowerback -7.095319 1.288397 2.232384
upperback -1.425039 1.472284 3.522178
thorax 2.474670 0.739964 2.500267
lowerneck -21.579029 -5.447992 -13.466420
upperneck 17.109840 -7.011983 16.600210
head 9.929294 -2.431495 7.047689
rclavicle -0.000000 0.000000
rhumerus -45.609303 21.710150 -97.253860
rradius 69.098373
rwrist -38.601307
rhand -34.186131 -32.609612
rfingers 7.837522
rthumb -4.794625 -65.538223
lclavicle -0.000000 0.000000
lhumerus -43.798920 -8.642788 99.156090
lradius 31.420290
lwrist 7.381264
lhand -8.248724 -26.337740
lfingers 7.837522
lthumb 20.230101 5.727997
rfemur 6.601386 6.914578 34.529881
rtibia 11.600380
rfoot -20.957861 -1.203752
rtoes -7.339772
lfemur -44.453423 -1.251217 -7.551126
ltibia 20.678350
lfoot -16.878180 17.693390
ltoes -11.635250
19
root 8.400557 17.483950 -37.762341 7.834112 -5.557090 -6.702311
lowerback -7.014722 1.555686 2.990053
upperback -1.350239 1.780581 3.382819
thorax 2.524346 0.898580 1.956163
lowerneck -21.979650 -5.378098 -12.971530
upperneck 17.562380 -7.027966 16.402210
head 10.133651 -2.407119 6.902533
rclavicle 0.000000 -0.000000
rhumerus -45.725018 21.335930 -97.958305
rradius 69.011360
rwrist -38.400890
rhand -34.566620 -32.172909
rfingers 7.837522
rthumb -5.162047 -65.093712
lclavicle 0.000000 -0.000000
lhumerus -44.229683 -9.557900 99.156967
lradius 31.732910
lwrist 7.723540
lhand -8.382770 -25.625820
lfingers 7.837522
lthumb 20.101179 6.451984
rfemur 7.995350 7.388282 34.905972
rtibia 10.448328
rfoot -20.465611 -1.061739
rtoes -7.518368
lfemur -44.290291 -1.813174 -6.248220
ltibia 20.559000
lfoot -17.633440 18.958939
ltoes -11.619630
20
root 8.381703 17.489010 -37.627151 9.425526 -7.627939 -7.551049
lowerback -8.215229 2.337500 3.868953
upperback -1.851619 2.718925 3.101890
thorax 2.713876 1.369467 1.290630
lowerneck -22.055111 -5.222536 -12.160830
upperneck 17.838699 -7.037525 16.213120
head 10.209320 -2.372326 6.700034
rclavicle -0.000000 -0.000000
rhumerus -46.041382 20.864470 -99.031685
rradius 69.012901
rwrist -38.193100
rhand -33.907940 -35.145000
rfingers 7.837522
rthumb -4.526027 -68.079002
lclavicle -0.000000 -0.000000
lhumerus -44.855358 -10.467962 98.876366
lradius 32.121979
lwrist 7.926941
lhand -8.527673 -24.783659
lfingers 7.837522
lthumb 19.961699 7.307102
rfemur 7.738522 9.555007 35.294491
rtibia 8.870950
rfoot -19.023069 -1.112947
rtoes -8.058699
lfemur -45.389961 -0.531399 -4.668466
ltibia 20.432610
lfoot -18.056940 20.017691
ltoes -12.546710
21
root 8.405364 17.476030 -37.465889 9.512701 -7.766605 -7.533130
lowerback -8.423173 2.260632 4.090625
upperback -1.894827 2.591853 2.974290
thorax 2.798092 1.307702 1.030037
lowerneck -21.659222 -5.100271 -12.123210
upperneck 17.518381 -6.901587 16.320261
head 10.011627 -2.315478 6.741394
rclavicle -0.000000 0.000000
rhumerus -46.295040 21.097672 -99.650215
rradius 69.065811
rwrist -37.997410
rhand -32.956551 -37.880920
rfingers 7.837522
rthumb -3.607208 -70.830978
lclavicle -0.000000 0.000000
lhumerus -45.338039 -10.548108 98.838417
lradius 32.203049
lwrist 7.667297
lhand -8.925972 -24.160509
lfingers 7.837522
lthumb 19.578459 7.965540
rfemur 8.922408 9.451310 35.147419
rtibia 7.485555
rfoot -17.945839 -1.160896
rtoes -8.318254
lfemur -45.707199 -0.687027 -4.568080
ltibia 20.571209
lfoot -18.441940 20.035069
ltoes -13.654850
22
root 8.472926 17.446110 -37.280430 8.173649 -5.998322 -7.128869
lowerback -7.699923 1.536513 4.299262
upperback -1.425523 1.639495 2.885938
thorax 2.876456 0.840283 0.716493
lowerneck -21.779671 -5.139266 -12.375000
upperneck 17.441490 -6.922564 16.599440
head 10.030602 -2.309868 6.882436
rclavicle -0.000000 -0.000000
rhumerus -46.303730 21.253210 -99.883850
rradius 68.982651
rwrist -37.661140
rhand -32.840279 -35.404709
rfingers 7.837522
rthumb -3.494931 -68.356422
lclavicle -0.000000 -0.000000
lhumerus -45.416691 -10.590217 98.912987
lradius 31.819700
lwrist 7.246481
lhand -9.231233 -24.151051
lfingers 7.837522
lthumb 19.284761 8.001368
rfemur 11.769010 7.180580 34.907509
rtibia 5.742396
rfoot -17.441160 -1.194314
rtoes -8.793895
lfemur -45.146530 -1.908720 -5.578749
ltibia 20.507849
lfoot -17.909761 19.008881
ltoes -14.537491
23
root 8.450431 17.440720 -37.145351 10.008691 -8.659090 -8.377050
lowerback -9.286596 2.536919 4.857039
upperback -1.723084 2.822039 3.184412
thorax 3.482633 1.434334 0.886657
lowerneck -22.141350 -5.219555 -12.315160
upperneck 17.671940 -7.059096 16.656860
head 10.196296 -2.346685 6.881908
rclavicle -0.000000 0.000000
rhumerus -46.370060 21.233521 -100.216934
rradius 68.925011
rwrist -37.622639
rhand -33.041470 -32.297321
rfingers 7.837522
rthumb -3.689224 -65.246063
lclavicle -0.000000 0.000000
lhumerus -45.449577 -10.887019 98.971291
lradius 31.440750
lwrist 7.097651
lhand -9.410918 -24.643629
lfingers 7.837522
lthumb 19.111839 7.524176
rfemur 12.336280 10.000254 35.740868
rtibia 2.033130
rfoot -15.001909 -1.839398
rtoes -11.759109
lfemur -46.151600 0.670074 -4.040674
ltibia 20.555370
lfoot -17.509359 19.853241
ltoes -14.564220
24
root 8.525208 17.386160 -36.939209 7.965177 -5.996045 -7.459276
lowerback -7.974736 1.479940 4.606250
upperback -1.219427 1.509123 3.036110
thorax 3.244483 0.783411 0.698923
lowerneck -21.983721 -5.223306 -12.353550
upperneck 17.569969 -7.038691 16.579639
head 10.127403 -2.355111 6.859083
rclavicle -0.000000 -0.000000
rhumerus -46.688618 21.386749 -100.489838
rradius 68.909279
rwrist -37.438499
rhand -33.327801 -33.018589
rfingers 7.837522
rthumb -3.965797 -65.962822
lclavicle -0.000000 -0.000000
lhumerus -45.731289 -10.871279 99.174789
lradius 31.304790
lwrist 6.933476
lhand -9.491394 -24.674212
lfingers 7.837522
lthumb 19.034401 7.500405
rfemur 16.017099 6.652470 35.209240
rtibia 0.000000
rfoot -14.750999 -2.116158
rtoes -15.432780
lfemur -45.082844 -0.757398 -6.151585
ltibia 20.588369
lfoot -16.608679 17.722979
ltoes -14.779820
25
root 8.532205 17.391220 -36.789280 7.534351 -8.753151 -7.559860
lowerback -7.158195 2.262623 4.228686
upperback -1.106556 2.619815 3.202441
thorax 2.905232 1.329009 1.161886
lowerneck -21.744358 -5.168526 -12.450680
upperneck 17.312901 -6.900850 16.466560
head 9.973612 -2.321055 6.845300
rclavicle -0.000000 -0.000000
rhumerus -47.004650 21.629850 -100.709511
rradius 68.760452
rwrist -37.016319
rhand -33.382690 -33.523380
rfingers 7.837522
rthumb -4.018729 -66.466621
lclavicle -0.000000 -0.000000
lhumerus -45.967461 -10.467258 99.321976
lradius 30.939810
lwrist 6.266073
lhand -9.587435 -24.674650
lfingers 7.837522
lthumb 18.941891 7.508094
rfemur 17.137341 9.001201 34.993309
rtibia -0.000000
rfoot -13.934580 -2.147717
rtoes -16.199259
lfemur -43.584202 0.506751 -5.734839
ltibia 20.851820
lfoot -17.179029 18.721889
ltoes -13.763420
26
root 8.583200 17.383850 -36.614491 8.137932 -7.112380 -7.498997
lowerback -8.096484 1.668084 4.451634
upperback -1.289310 1.757987 3.289286
thorax 3.233780 0.903465 1.074023
lowerneck -21.797491 -5.108257 -12.579050
upperneck 17.283970 -6.765132 16.446100
head 9.955902 -2.266055 6.879268
rclavicle -0.000000 -0.000000
rhumerus -47.131481 21.891319 -100.895302
rradius 68.458611
rwrist -36.603161
rhand -33.176331 -33.027939
rfingers 7.837522
rthumb -3.819519 -65.974480
lclavicle -0.000000 -0.000000
lhumerus -46.072620 -10.076264 99.423058
lradius 30.409281
lwrist 5.509702
lhand -9.804124 -24.810280
lfingers 7.837522
lthumb 18.733330 7.390592
rfemur 17.017441 7.311348 34.740860
rtibia -0.000000
rfoot -13.572680 -1.744776
rtoes -17.851021
lfemur -44.869221 0.826683 -6.894899
ltibia 20.942570
lfoot -15.777410 16.848040
ltoes -15.531010
27
root 8.600636 17.367571 -36.447731 8.215448 -7.768068 -7.870082
lowerback -8.181305 1.875478 4.591895
upperback -1.315600 2.010118 3.522816
thorax 3.254097 1.028920 1.265187
lowerneck -21.723351 -5.151608 -12.901020
upperneck 17.385281 -6.761623 16.503960
head 9.988385 -2.280740 6.960569
rclavicle 0.000000 -0.000000
rhumerus -47.493488 21.926739 -101.004860
rradius 68.275017
rwrist -35.985729
rhand -33.298981 -33.239029
rfingers 7.837522
rthumb -3.937956 -66.183594
lclavicle 0.000000 -0.000000
lhumerus -46.386669 -10.028700 99.729736
lradius 30.055300
lwrist 5.200305
lhand -10.028437 -24.703581
lfingers 7.837522
lthumb 18.517399 7.515750
rfemur 17.775341 7.774272 34.840080
rtibia -0.000000
rfoot -12.782000 -1.013795
rtoes -19.640610
lfemur -44.655380 2.162160 -7.094208
ltibia 21.229780
lfoot -16.318060 15.976840
ltoes -15.422661
